<?xml version="1.0" standalone="no"?>
<!DOCTYPE svg PUBLIC "-//W3C//DTD SVG 20010904//EN"
 "http://www.w3.org/TR/2001/REC-SVG-20010904/DTD/svg10.dtd">
<svg version="1.0" xmlns="http://www.w3.org/2000/svg"
 width="64.000000pt" height="64.000000pt" viewBox="0 0 64.000000 64.000000"
 preserveAspectRatio="xMidYMid meet">

<g transform="translate(0.000000,64.000000) scale(0.100000,-0.100000)"
fill="#000000" stroke="none">
<path d="M138 595 c-8 -19 -8 -31 0 -50 13 -28 39 -36 27 -7 -5 9 -8 24 -8 32
0 8 3 23 8 33 12 28 -14 20 -27 -8z"/>
<path d="M198 595 c-8 -19 -8 -31 0 -50 13 -28 39 -36 27 -7 -5 9 -8 24 -8 32
0 8 3 23 8 33 12 28 -14 20 -27 -8z"/>
<path d="M258 595 c-8 -19 -8 -31 0 -50 13 -28 39 -36 27 -7 -5 9 -8 24 -8 32
0 8 3 23 8 33 12 28 -14 20 -27 -8z"/>
<path d="M401 546 l-74 -75 -30 16 c-43 22 -173 10 -187 -18 -12 -22 -3 -44
29 -73 28 -26 26 -33 -10 -41 -17 -4 -48 -23 -70 -43 l-39 -36 0 -93 c0 -87 1
-93 25 -109 43 -28 117 -45 225 -51 124 -7 236 8 300 40 l45 22 3 94 3 93 -33
34 c-35 35 -91 58 -170 69 -36 5 -48 10 -47 23 0 9 51 60 114 112 106 88 128
110 108 110 -5 0 -59 -43 -122 -96 -87 -74 -115 -94 -122 -83 -6 10 13 35 66
89 41 42 75 79 75 83 0 17 -20 2 -89 -67z m-89 -96 l33 -30 -50 -45 c-27 -24
-54 -43 -60 -41 -17 5 -18 46 -1 52 9 3 16 10 16 15 0 15 -19 10 -37 -10 -9
-11 -20 -18 -25 -15 -14 9 -9 44 7 50 8 4 15 10 15 15 0 15 -18 10 -38 -11
l-19 -20 -18 20 c-29 32 -3 45 102 49 35 1 49 -5 75 -29z m30 -150 c-5 -29
-13 -45 -22 -45 -21 0 -25 44 -6 51 9 3 16 10 16 15 0 15 -18 10 -39 -12 -14
-15 -21 -17 -27 -8 -5 8 8 26 37 51 42 36 44 37 47 16 1 -13 -1 -43 -6 -68z
m103 49 c65 -12 115 -34 115 -50 0 -5 -13 -3 -28 5 -16 8 -59 20 -95 26 -37 7
-67 16 -67 21 0 11 4 11 75 -2z m-255 -7 c0 -4 -5 -13 -12 -20 -6 -6 -9 -15
-5 -19 4 -4 13 -1 19 5 18 18 33 15 18 -3 -16 -19 -5 -32 13 -17 11 9 20 5 43
-19 l29 -32 -55 7 c-75 9 -130 25 -130 36 0 6 7 10 15 10 8 0 15 5 15 10 0 13
-16 13 -41 0 -12 -7 -19 -7 -19 -1 0 12 31 30 69 42 35 10 41 10 41 1z m210
-30 c0 -5 -9 -17 -20 -27 -20 -18 -20 -17 -20 8 0 20 5 27 20 27 11 0 20 -4
20 -8z m40 -37 c-19 -19 -43 -35 -54 -35 -17 0 -15 5 14 35 19 19 43 35 54 35
17 0 15 -5 -14 -35z m90 5 c0 -5 -9 -11 -20 -14 -11 -3 -30 -9 -42 -12 l-23
-6 23 25 c22 23 62 28 62 7z m-470 -22 c0 -16 -3 -19 -11 -11 -6 6 -8 16 -5
22 11 17 16 13 16 -11z m532 -10 c-9 -9 -12 -7 -12 12 0 19 3 21 12 12 9 -9 9
-15 0 -24z m-412 -14 c108 -23 276 -13 363 21 13 5 17 2 17 -13 0 -31 -81 -47
-240 -47 -159 0 -240 16 -240 47 0 15 4 18 18 13 9 -4 46 -13 82 -21z m-60
-41 c25 -8 96 -17 158 -20 l112 -6 0 -65 0 -65 -112 6 c-111 6 -195 23 -223
47 -10 8 -15 32 -15 72 0 53 2 59 18 53 9 -4 37 -14 62 -22z m478 -35 c-3 -61
-4 -64 -38 -80 -19 -9 -50 -19 -67 -23 l-33 -7 0 64 0 64 63 20 c34 12 66 22
70 22 4 1 7 -26 5 -60z m-158 -42 c0 -48 -4 -65 -15 -70 -12 -4 -15 6 -15 58
0 34 3 66 7 69 17 17 23 2 23 -57z"/>
<path d="M80 161 c0 -5 21 -14 48 -19 87 -20 122 -23 122 -13 0 6 -17 13 -37
16 -21 3 -57 10 -80 16 -51 11 -53 11 -53 0z"/>
<path d="M280 130 c0 -5 9 -10 20 -10 11 0 20 5 20 10 0 6 -9 10 -20 10 -11 0
-20 -4 -20 -10z"/>
</g>
</svg>
